<svg width="283" height="113" viewBox="0 0 283 113" fill="none" xmlns="http://www.w3.org/2000/svg">
<path d="M47.0388 110.845V85.7099H0.358887V66.9755L53.5958 0H67.9588V66.8194H81.6974V85.7099H67.9588V110.845H47.0388ZM21.4351 66.8194H49.3806V31.5362L21.4351 66.8194Z" fill="white"/>
<path d="M142.418 112.406C134.508 112.302 127.535 110.533 121.498 107.098C115.566 103.56 110.57 99.0842 106.511 93.672C102.452 88.1558 99.3812 82.1191 97.2997 75.5621C95.3221 68.901 94.3334 62.448 94.3334 56.2032C94.3334 49.5421 95.4262 42.881 97.6119 36.2198C99.9017 29.4546 103.128 23.418 107.291 18.1099C111.455 12.6978 116.502 8.3264 122.435 4.99584C128.368 1.66528 135.029 0 142.418 0C150.328 0 157.302 1.8214 163.338 5.46421C169.375 9.00292 174.423 13.5304 178.482 19.0466C182.541 24.5629 185.559 30.6516 187.537 37.3127C189.619 43.8697 190.659 50.1666 190.659 56.2032C190.659 62.9684 189.515 69.6816 187.225 76.3427C185.039 83.0038 181.865 89.0404 177.701 94.4526C173.538 99.7607 168.49 104.08 162.558 107.411C156.625 110.741 149.912 112.406 142.418 112.406ZM116.034 56.2032C116.138 60.5746 116.711 64.9459 117.751 69.3173C118.896 73.6887 120.509 77.6957 122.591 81.3385C124.777 84.8772 127.483 87.7915 130.709 90.0812C134.04 92.2669 137.943 93.3598 142.418 93.3598C147.102 93.3598 151.109 92.1628 154.44 89.769C157.77 87.3752 160.476 84.3568 162.558 80.714C164.743 76.9672 166.357 72.9601 167.398 68.6928C168.438 64.3214 168.959 60.1582 168.959 56.2032C168.959 51.8318 168.386 47.4605 167.241 43.0891C166.097 38.7178 164.431 34.7627 162.246 31.224C160.06 27.5812 157.302 24.667 153.971 22.4813C150.641 20.1915 146.79 19.0466 142.418 19.0466C137.839 19.0466 133.884 20.2436 130.553 22.6374C127.223 25.0312 124.465 28.1016 122.279 31.8485C120.197 35.4913 118.636 39.4984 117.595 43.8697C116.554 48.2411 116.034 52.3522 116.034 56.2032Z" fill="white"/>
<path d="M247.982 110.845V85.7099H201.302V66.9755L254.539 0H268.902V66.8194H282.641V85.7099H268.902V110.845H247.982ZM222.379 66.8194H250.324V31.5362L222.379 66.8194Z" fill="white"/>
</svg>
