<svg width="175" height="41" viewBox="0 0 175 41" fill="none" xmlns="http://www.w3.org/2000/svg">
<path d="M29.8763 0H11.1022C4.9706 0 0 4.9706 0 11.1022V29.8763C0 36.0079 4.9706 40.9785 11.1022 40.9785H29.8763C36.0079 40.9785 40.9785 36.0079 40.9785 29.8763V11.1022C40.9785 4.9706 36.0079 0 29.8763 0Z" fill="#FFC344"/>
<path d="M21.2204 26.2782L35.406 29.1765L21.2204 37.9833V26.2782ZM35.9593 27.1525L21.2074 2.99731L21.2204 24.1401L35.9593 27.1525ZM19.0133 24.1401V2.99731L4.20752 27.1611L19.0133 24.1401ZM19.0133 37.9833V26.2782L4.78459 29.1808L19.0133 37.9833Z" fill="white"/>
<path d="M59.1155 39.0729C57.0118 37.8046 55.4011 36.0605 54.2836 33.8448C53.166 31.6291 52.6062 29.1378 52.6062 26.3709C52.6062 23.6039 53.1639 21.1622 54.2836 18.9249C55.4011 16.6899 57.0118 14.9285 59.1155 13.6387C61.2192 12.3511 63.6911 11.7051 66.5334 11.7051C69.3757 11.7051 71.8003 12.3597 73.9212 13.6667C76.0422 14.9737 77.6722 16.7458 78.8091 18.9809C79.946 21.216 80.5145 23.6793 80.5145 26.3687C80.5145 29.0581 79.946 31.6269 78.8091 33.8426C77.6722 36.0583 76.0529 37.8025 73.9492 39.0707C71.8455 40.339 69.3736 40.9742 66.5313 40.9742C63.689 40.9742 61.217 40.339 59.1133 39.0707L59.1155 39.0729ZM60.7347 33.5886C62.0611 35.3693 63.9926 36.2607 66.5313 36.2607C69.07 36.2607 70.954 35.3607 72.2998 33.5606C73.6434 31.7604 74.3174 29.3639 74.3174 26.3709C74.3174 23.3778 73.6434 20.9705 72.2998 19.1532C70.954 17.3337 69.0312 16.425 66.5313 16.425C64.0313 16.425 62.1063 17.3337 60.7627 19.1532C59.4169 20.9727 58.7451 23.3778 58.7451 26.3709C58.7451 29.3639 59.4083 31.8078 60.7347 33.5886Z" fill="black"/>
<path d="M85.8266 38.8468C84.1406 37.4256 83.2965 35.4468 83.2965 32.9081C83.2965 30.7872 83.8843 29.1292 85.0579 27.9341C86.2314 26.7412 87.6439 25.8799 89.2912 25.3481C90.9384 24.8184 92.9581 24.3813 95.3439 24.041C97.7685 23.7008 99.5212 23.3111 100.602 22.8761C101.683 22.4412 102.221 21.6919 102.221 20.6303C102.221 17.7514 100.327 16.3109 96.5368 16.3109C94.4913 16.3109 92.9754 16.7006 91.9892 17.4758C91.003 18.2531 90.4345 19.4568 90.2838 21.0846H84.4291C84.5432 18.167 85.6802 15.8759 87.8399 14.2072C89.9996 12.5405 92.8785 11.7051 96.4787 11.7051C100.079 11.7051 103.044 12.5664 105.031 14.2911C107.021 16.0159 108.016 18.4684 108.016 21.6509V33.4723C108.016 34.4951 108.139 35.2056 108.386 35.604C108.632 36.0023 108.983 36.2005 109.437 36.2005C109.816 36.2005 110.1 36.1811 110.29 36.1445V40.1797C109.381 40.4833 108.414 40.634 107.391 40.634C105.914 40.634 104.758 40.2184 103.925 39.383C103.091 38.5497 102.635 37.5075 102.559 36.2564L102.503 36.0863H102.389C101.707 37.4881 100.486 38.653 98.7224 39.5811C96.961 40.5091 94.9047 40.9742 92.5555 40.9742C89.752 40.9742 87.5061 40.2636 85.8201 38.8425L85.8266 38.8468ZM90.4302 35.5502C91.3583 36.2521 92.6179 36.601 94.2092 36.601C95.6109 36.601 96.9374 36.2887 98.1884 35.6621C99.4394 35.0355 100.443 34.2044 101.201 33.1601C101.959 32.1179 102.338 30.9917 102.338 29.7795V26.0285C101.655 26.7111 99.5902 27.2795 96.1428 27.7339C93.9077 28.0741 92.1636 28.5866 90.9147 29.2691C89.6637 29.9517 89.0392 31.0499 89.0392 32.5658C89.0392 33.8534 89.5022 34.8482 90.4324 35.5502H90.4302Z" fill="black"/>
<path d="M115.38 38.3925C113.125 36.6677 111.978 34.254 111.941 31.1468H117.738C117.774 32.8156 118.39 34.1118 119.585 35.0399C120.778 35.9679 122.38 36.433 124.387 36.433C126.206 36.433 127.664 36.0735 128.762 35.3543C129.861 34.6351 130.41 33.7436 130.41 32.6821C130.41 31.698 129.878 30.9487 128.818 30.4362C127.757 29.9238 126.051 29.3467 123.702 28.7029C121.465 28.1344 119.611 27.566 118.132 26.9975C116.655 26.429 115.384 25.5764 114.325 24.4394C113.263 23.3025 112.734 21.8448 112.734 20.064C112.734 17.4866 113.776 15.4518 115.86 13.9531C117.944 12.4566 120.597 11.7073 123.816 11.7073C127.035 11.7073 129.878 12.5126 131.887 14.1232C133.894 15.7339 135.03 17.8656 135.297 20.5162H129.613C129.385 19.1145 128.78 18.0529 127.793 17.3337C126.807 16.6145 125.481 16.2528 123.814 16.2528C122.148 16.2528 120.944 16.5478 119.977 17.1335C119.01 17.7213 118.528 18.5072 118.528 19.4913C118.528 20.5894 119.096 21.4141 120.233 21.9632C121.37 22.5123 123.168 23.1281 125.634 23.8107C127.869 24.3791 129.688 24.939 131.09 25.4881C132.492 26.0372 133.695 26.8339 134.699 27.876C135.702 28.9182 136.204 30.292 136.204 31.9973C136.204 33.7027 135.672 35.35 134.613 36.7151C133.551 38.0781 132.102 39.1311 130.265 39.8696C128.426 40.6082 126.372 40.9786 124.098 40.9786C120.537 40.9786 117.628 40.1173 115.373 38.3925H115.38Z" fill="black"/>
<path d="M146.214 0.510254V6.70515H140.19L146.214 0.510254ZM140.19 11.7072H146.214V40.9784H140.19V11.7072Z" fill="black"/>
<path d="M153.516 38.3925C151.262 36.6677 150.114 34.254 150.077 31.1468H155.874C155.911 32.8156 156.526 34.1118 157.721 35.0399C158.914 35.9679 160.516 36.433 162.523 36.433C164.343 36.433 165.8 36.0735 166.899 35.3543C167.997 34.6351 168.546 33.7436 168.546 32.6821C168.546 31.698 168.014 30.9487 166.955 30.4362C165.893 29.9238 164.188 29.3467 161.838 28.7029C159.601 28.1344 157.747 27.566 156.268 26.9975C154.791 26.429 153.52 25.5764 152.461 24.4394C151.399 23.3025 150.87 21.8448 150.87 20.064C150.87 17.4866 151.912 15.4518 153.996 13.9531C156.081 12.4566 158.733 11.7073 161.953 11.7073C165.172 11.7073 168.014 12.5126 170.023 14.1232C172.03 15.7339 173.167 17.8656 173.434 20.5162H167.749C167.521 19.1145 166.916 18.0529 165.93 17.3337C164.943 16.6145 163.617 16.2528 161.95 16.2528C160.284 16.2528 159.08 16.5478 158.113 17.1335C157.147 17.7213 156.664 18.5072 156.664 19.4913C156.664 20.5894 157.233 21.4141 158.37 21.9632C159.506 22.5123 161.304 23.1281 163.77 23.8107C166.005 24.3791 167.824 24.939 169.226 25.4881C170.628 26.0372 171.832 26.8339 172.835 27.876C173.839 28.9182 174.34 30.292 174.34 31.9973C174.34 33.7027 173.808 35.35 172.749 36.7151C171.687 38.0781 170.238 39.1311 168.402 39.8696C166.563 40.6082 164.508 40.9786 162.235 40.9786C158.673 40.9786 155.764 40.1173 153.51 38.3925H153.516Z" fill="black"/>
</svg>
