<svg width="70" height="70" viewBox="0 0 70 70" fill="none" xmlns="http://www.w3.org/2000/svg">
<circle cx="35" cy="35" r="35" fill="#FFC344"/>
<path d="M45 43.2487V35.4227C45.0001 34.8782 44.889 34.3395 44.6735 33.8394C44.458 33.3394 44.1428 32.8886 43.747 32.5147L36.374 25.5467C36.0027 25.1956 35.511 25 35 25C34.489 25 33.9973 25.1956 33.626 25.5467L26.253 32.5147C25.8572 32.8886 25.542 33.3394 25.3265 33.8394C25.111 34.3395 24.9999 34.8782 25 35.4227V43.2487C25 43.7791 25.2107 44.2878 25.5858 44.6629C25.9609 45.038 26.4696 45.2487 27 45.2487H43C43.5304 45.2487 44.0391 45.038 44.4142 44.6629C44.7893 44.2878 45 43.7791 45 43.2487Z" stroke="white" stroke-width="2" stroke-linecap="round" stroke-linejoin="round"/>
</svg>
