<svg width="70" height="70" viewBox="0 0 70 70" fill="none" xmlns="http://www.w3.org/2000/svg">
<circle cx="35" cy="35" r="35" fill="#FFC344"/>
<path d="M33.554 29.24L30.171 25.335C29.781 24.885 29.066 24.887 28.613 25.341L25.831 28.128C25.003 28.957 24.766 30.188 25.245 31.175C28.1066 37.1 32.885 41.8851 38.806 44.755C39.792 45.234 41.022 44.997 41.85 44.168L44.658 41.355C45.113 40.9 45.114 40.181 44.66 39.791L40.74 36.426C40.33 36.074 39.693 36.12 39.282 36.532L37.918 37.898C37.8482 37.9712 37.7562 38.0195 37.6563 38.0354C37.5564 38.0513 37.4541 38.0339 37.365 37.986C35.1354 36.7021 33.286 34.8503 32.005 32.619C31.957 32.5298 31.9396 32.4273 31.9555 32.3272C31.9714 32.2271 32.0197 32.135 32.093 32.065L33.453 30.704C33.865 30.29 33.91 29.65 33.554 29.239V29.24Z" stroke="white" stroke-width="2" stroke-linecap="round" stroke-linejoin="round"/>
</svg>
