<svg width="1120" height="100" viewBox="0 0 1120 100" fill="none" xmlns="http://www.w3.org/2000/svg">
<circle cx="1.5" cy="1.5" r="1.5" fill="#D2D6DB"/>
<circle cx="34.5" cy="1.5" r="1.5" fill="#D2D6DB"/>
<circle cx="67.5" cy="1.5" r="1.5" fill="#D2D6DB"/>
<circle cx="1.5" cy="34.5" r="1.5" fill="#D2D6DB"/>
<circle cx="34.5" cy="34.5" r="1.5" fill="#D2D6DB"/>
<circle cx="67.5" cy="34.5" r="1.5" fill="#D2D6DB"/>
<circle cx="1.5" cy="67.5" r="1.5" fill="#D2D6DB"/>
<circle cx="34.5" cy="67.5" r="1.5" fill="#D2D6DB"/>
<circle cx="67.5" cy="67.5" r="1.5" fill="#D2D6DB"/>
<circle cx="256.5" cy="1.5" r="1.5" fill="#D2D6DB"/>
<circle cx="289.5" cy="1.5" r="1.5" fill="#D2D6DB"/>
<circle cx="322.5" cy="1.5" r="1.5" fill="#D2D6DB"/>
<circle cx="256.5" cy="34.5" r="1.5" fill="#D2D6DB"/>
<circle cx="289.5" cy="34.5" r="1.5" fill="#D2D6DB"/>
<circle cx="322.5" cy="34.5" r="1.5" fill="#D2D6DB"/>
<circle cx="256.5" cy="67.5" r="1.5" fill="#D2D6DB"/>
<circle cx="289.5" cy="67.5" r="1.5" fill="#D2D6DB"/>
<circle cx="322.5" cy="67.5" r="1.5" fill="#D2D6DB"/>
<circle cx="511.5" cy="1.5" r="1.5" fill="#D2D6DB"/>
<circle cx="544.5" cy="1.5" r="1.5" fill="#D2D6DB"/>
<circle cx="577.5" cy="1.5" r="1.5" fill="#D2D6DB"/>
<circle cx="511.5" cy="34.5" r="1.5" fill="#D2D6DB"/>
<circle cx="544.5" cy="34.5" r="1.5" fill="#D2D6DB"/>
<circle cx="577.5" cy="34.5" r="1.5" fill="#D2D6DB"/>
<circle cx="511.5" cy="67.5" r="1.5" fill="#D2D6DB"/>
<circle cx="544.5" cy="67.5" r="1.5" fill="#D2D6DB"/>
<circle cx="577.5" cy="67.5" r="1.5" fill="#D2D6DB"/>
<circle cx="766.5" cy="1.5" r="1.5" fill="#D2D6DB"/>
<circle cx="799.5" cy="1.5" r="1.5" fill="#D2D6DB"/>
<circle cx="832.5" cy="1.5" r="1.5" fill="#D2D6DB"/>
<circle cx="766.5" cy="34.5" r="1.5" fill="#D2D6DB"/>
<circle cx="799.5" cy="34.5" r="1.5" fill="#D2D6DB"/>
<circle cx="832.5" cy="34.5" r="1.5" fill="#D2D6DB"/>
<circle cx="766.5" cy="67.5" r="1.5" fill="#D2D6DB"/>
<circle cx="799.5" cy="67.5" r="1.5" fill="#D2D6DB"/>
<circle cx="832.5" cy="67.5" r="1.5" fill="#D2D6DB"/>
<circle cx="1021.5" cy="1.5" r="1.5" fill="#D2D6DB"/>
<circle cx="1054.5" cy="1.5" r="1.5" fill="#D2D6DB"/>
<circle cx="1087.5" cy="1.5" r="1.5" fill="#D2D6DB"/>
<circle cx="1021.5" cy="34.5" r="1.5" fill="#D2D6DB"/>
<circle cx="1054.5" cy="34.5" r="1.5" fill="#D2D6DB"/>
<circle cx="1087.5" cy="34.5" r="1.5" fill="#D2D6DB"/>
<circle cx="1021.5" cy="67.5" r="1.5" fill="#D2D6DB"/>
<circle cx="1054.5" cy="67.5" r="1.5" fill="#D2D6DB"/>
<circle cx="1087.5" cy="67.5" r="1.5" fill="#D2D6DB"/>
</svg>
